<svg id="Layer_1" data-name="Layer 1" xmlns="http://www.w3.org/2000/svg" viewBox="0 0 534 180"><defs><style>.cls-1{fill:#f75959;}.cls-2{fill:#a56253;}.cls-3{fill:#e54e4e;}.cls-4{fill:#ffce43;}.cls-5{fill:#7cbc3f;}</style></defs><title>fill</title><rect class="cls-1" x="349" y="74" width="158" height="32" rx="16"/><rect class="cls-2" x="23" y="105.74" width="481" height="74.65" rx="23.82"/><rect class="cls-1" x="19" y="74" width="158" height="32" rx="16"/><rect class="cls-3" x="156" y="74" width="226" height="32" rx="16"/><rect class="cls-2" x="23" y="-0.26" width="481" height="74.65" rx="23.82"/><path class="cls-4" d="M111.84,74.39S335,105,382,133l61.42-58.61Z"/><polygon class="cls-5" points="40 0 0 32 85 50 128 18 185 50 223 25 286 50 320 25 368 50 390 17 441 50 475 25 534 37 488 0 40 0"/></svg>